Coordinates
datacolumns 6
datarows 134
range 0 1.33
inDegrees=yes
Units are S.I. units (second, meters, Newtons, ...)
If the header above contains a line with 'inDegrees', this indicates whether rotational values are in degrees (yes) or radians (no).
endheader
time	foot_tx	hip_flexion_r	knee_angle_r	ankle_angle_r	lumbar
0	0.20310887	63.29746712	-76.50114323	5.14184491	-13.36436539
0.01	0.20309587	63.40988072	-76.49045141	5.14760077	-13.46814314
0.02	0.20308959	63.5321746	-76.47911568	5.15274221	-13.58222391
0.03	0.20309083	63.66691403	-76.46676533	5.15666148	-13.70523614
0.04	0.20309975	63.81570943	-76.45283432	5.15889632	-13.836554
0.05	0.20311318	63.97911689	-76.43712758	5.1597151	-13.97624061
0.06	0.20312638	64.15722177	-76.41993769	5.16013143	-14.12395635
0.07	0.20313472	64.35046238	-76.40177561	5.16121314	-14.2791283
0.08	0.20313593	64.56027521	-76.38270172	5.163207	-14.44091703
0.09	0.20312478	64.83221241	-76.36712169	5.16506548	-14.55562548
0.1	0.20311425	65.06922617	-76.34571775	5.16924954	-14.74008775
0.11	0.2030949	65.39164465	-76.32851091	5.17170318	-14.8506456
0.12	0.20307457	65.70637741	-76.30947248	5.1773863	-14.9963035
0.13	0.20305196	66.04220881	-76.29089912	5.18574431	-15.14160863
0.14	0.20302294	66.39877396	-76.27441346	5.19846834	-15.28652257
0.15	0.20299429	66.77213154	-76.25946306	5.21535273	-15.43612977
0.16	0.20296008	67.16460892	-76.24772855	5.23734907	-15.58957122
0.17	0.2029293	67.57551099	-76.23746334	5.26282281	-15.74977485
0.18	0.20289829	68.00725392	-76.22950719	5.29230682	-15.91586002
0.19	0.20286906	68.46008089	-76.22351394	5.32559405	-16.08906954
0.2	0.20283496	68.9339562	-76.2211458	5.36426648	-16.27105621
0.21	0.20280035	69.43036745	-76.22107418	5.40703144	-16.46272682
0.22	0.20275235	69.94813554	-76.2266375	5.45684744	-16.66779469
0.23	0.20269828	70.49162662	-76.23497462	5.51117589	-16.88430773
0.24	0.20263061	71.06123487	-76.2470721	5.57135461	-17.11317159
0.25	0.20255924	71.66200421	-76.26066364	5.63559554	-17.34757361
0.26	0.2024836	72.2959452	-76.27520328	5.70379908	-17.58362615
0.27	0.20239729	72.96054858	-76.29182972	5.77798126	-17.82231817
0.28	0.20231516	73.66595343	-76.30554575	5.85373115	-18.04862238
0.29	0.20223441	74.41389874	-76.31629192	5.93201006	-18.25553679
0.3	0.20216178	75.21046957	-76.3222305	6.01148927	-18.43088239
0.31	0.20207985	76.05337748	-76.32783886	6.09708203	-18.57237112
0.32	0.20200249	76.94934516	-76.33203119	6.18663341	-18.66942881
0.33	0.20192708	77.89271016	-76.33823223	6.28315142	-18.72475069
0.34	0.20185145	78.881765	-76.34934718	6.38880071	-18.7368911
0.35	0.20176236	79.90359508	-76.36955755	6.50909046	-18.71454747
0.36	0.2016785	80.96081176	-76.39748834	6.64359642	-18.64536874
0.37	0.201578	82.04608853	-76.4333843	6.79771433	-18.52974151
0.38	0.20148848	83.158271	-76.4729781	6.97042361	-18.35638249
0.39	0.20140637	84.29402241	-76.51368396	7.16362519	-18.11936126
0.4	0.20134261	85.44824782	-76.54855296	7.37536794	-17.8162576
0.41	0.20130849	86.61431634	-76.5730872	7.60405985	-17.44703515
0.42	0.20130193	87.78196262	-76.5841399	7.84996071	-17.0170338
0.43	0.20132113	88.93816715	-76.57951635	8.11318552	-16.53647567
0.44	0.20136218	90.06832358	-76.55836458	8.39432614	-16.01869359
0.45	0.20141609	91.16083162	-76.52154882	8.69457671	-15.47310985
0.46	0.20149645	92.18935233	-76.46522845	9.01100066	-14.93240235
0.47	0.20158759	93.13958458	-76.39556591	9.34727858	-14.40907045
0.48	0.20168777	93.99477981	-76.31395825	9.70266397	-13.92193805
0.49	0.20179742	94.7412285	-76.22252657	10.07573564	-13.48648039
0.5	0.20191603	95.37066438	-76.12384912	10.46445661	-13.11188503
0.51	0.20204361	95.88684355	-76.01913492	10.86517035	-12.79124977
0.52	0.20217752	96.29206318	-75.90956427	11.27476914	-12.51944993
0.53	0.2023186	96.59034305	-75.7947035	11.68988647	-12.28799376
0.54	0.20246983	96.78445488	-75.67188375	12.10701768	-12.0883486
0.55	0.20263493	96.88146229	-75.53618336	12.52145924	-11.90732269
0.56	0.20281576	96.88290853	-75.38191115	12.92963861	-11.73755225
0.57	0.20301161	96.79112225	-75.2024665	13.32848292	-11.56898852
0.58	0.20321284	96.60402317	-74.99145042	13.71627614	-11.39944408
0.59	0.20341581	96.34645245	-74.73841379	14.08746431	-11.19026934
0.6	0.20360786	95.96732666	-74.44030334	14.44614197	-11.00354531
0.61	0.20379043	95.50480055	-74.08852045	14.78598245	-10.7866824
0.62	0.20396429	94.9406092	-73.67519658	15.10433737	-10.56315269
0.63	0.20412918	94.27548986	-73.1956083	15.39829946	-10.3338076
0.64	0.20428983	93.50806892	-72.64419772	15.66413948	-10.10437632
0.65	0.20444836	92.63478321	-72.01773599	15.89911074	-9.88499964
0.66	0.2046124	91.65406744	-71.3144338	16.10068564	-9.68402448
0.67	0.20478644	90.57164176	-70.53118544	16.26516922	-9.50060774
0.68	0.20497686	89.38292613	-69.66847742	16.39181366	-9.34589495
0.69	0.20518638	88.09504575	-68.72404992	16.47789438	-9.21575725
0.7	0.20542326	86.71943056	-67.69529144	16.51982643	-9.09995841
0.71	0.20568948	85.27041601	-66.57953134	16.51433117	-8.98399406
0.72	0.20598523	83.75868044	-65.37526108	16.4592092	-8.85665333
0.73	0.20630787	82.1902063	-64.08342139	16.35442794	-8.7115344
0.74	0.20666055	80.57613664	-62.70383687	16.19841419	-8.53455546
0.75	0.20702858	78.8969094	-61.24327361	15.99742528	-8.3496956
0.76	0.20740624	77.15465807	-59.7044127	15.75305517	-8.15345361
0.77	0.207784	75.3486476	-58.09007709	15.46732553	-7.94706229
0.78	0.20815255	73.48969014	-56.40233814	15.14103793	-7.71791648
0.79	0.20850907	71.57253137	-54.64447367	14.77629751	-7.47450473
0.8	0.2088469	69.60758887	-52.82115847	14.375331	-7.20702968
0.81	0.20917876	67.57544463	-50.9392683	13.94247445	-6.94292983
0.82	0.20950888	65.46815556	-49.00788386	13.48339745	-6.69578597
0.83	0.20984152	63.2749936	-47.03634729	13.00449949	-6.48154035
0.84	0.21017738	60.99213997	-45.03240517	12.51133961	-6.30690973
0.85	0.21051472	58.62351263	-43.00233676	12.00816671	-6.17004791
0.86	0.21084933	56.1791016	-40.95279438	11.49846765	-6.06432067
0.87	0.21117909	53.68137859	-38.89144768	10.98458316	-5.97135892
0.88	0.21150093	51.1506906	-36.82795284	10.46940632	-5.87935949
0.89	0.21181363	48.61781336	-34.77388627	9.95567092	-5.76647394
0.9	0.21211645	46.10370528	-32.74241222	9.44757007	-5.62476455
0.91	0.21240516	43.63779281	-30.74747502	8.94948078	-5.43684253
0.92	0.21268361	41.24202763	-28.80413539	8.46599468	-5.19735451
0.93	0.21294981	38.93832594	-26.92659003	8.00168719	-4.90040308
0.94	0.21320302	36.74281738	-25.12950598	7.5613192	-4.54872199
0.95	0.21343834	34.68336515	-23.42612795	7.14849097	-4.12955726
0.96	0.2136565	32.7629336	-21.82978731	6.76784752	-3.66130962
0.97	0.2138572	30.9939045	-20.34995642	6.42221532	-3.146197
0.98	0.21404611	29.37784086	-18.99350428	6.11383555	-2.59620987
0.99	0.214231	27.90814715	-17.76129208	5.84306159	-2.02660614
1	0.21440903	26.57376414	-16.65254429	5.61110477	-1.45138766
1.01	0.21459025	25.36996142	-15.65973028	5.41446741	-0.87479291
1.02	0.2147734	24.27894878	-14.77921741	5.25290349	-0.31707849
1.03	0.21494916	23.29892127	-14.00226837	5.12394469	0.22893271
1.04	0.21511449	22.41370054	-13.32248132	5.02565691	0.74859219
1.05	0.2152678	21.61801938	-12.72632995	4.95223751	1.24642511
1.06	0.21539872	20.89984905	-12.20493232	4.90122323	1.71868388
1.07	0.21550214	20.24842108	-11.74741035	4.86866685	2.16361268
1.08	0.21557534	19.6575352	-11.34246376	4.849815	2.58425866
1.09	0.2156136	19.12175368	-10.98222084	4.84137403	2.98151036
1.1	0.21561813	18.63630384	-10.65389793	4.83725883	3.35969469
1.11	0.21558689	18.19440877	-10.35200653	4.83543389	3.71775696
1.12	0.21551934	17.8069511	-10.07035251	4.83324977	4.08045115
1.13	0.21542291	17.40054394	-9.78825655	4.82580689	4.37733158
1.14	0.21527879	17.02720345	-9.51084545	4.81509404	4.67971928
1.15	0.21510636	16.6623021	-9.22355554	4.7946533	4.96907322
1.16	0.21489544	16.29801016	-8.92100328	4.76413486	5.24706657
1.17	0.21463771	15.92946478	-8.59681191	4.72186717	5.51706825
1.18	0.21432519	15.55512473	-8.24643387	4.66677624	5.7840914
1.19	0.21395022	15.17375107	-7.86729069	4.59829787	6.05043818
1.2	0.21350861	14.78778255	-7.45823384	4.51637486	6.32196033
1.21	0.21299741	14.3988085	-7.02098245	4.42210392	6.60064487
1.22	0.21241943	14.01185905	-6.55949641	4.31719373	6.89066278
1.23	0.211784	13.63075609	-6.08176904	4.20486892	7.19015633
1.24	0.21110848	13.25517973	-5.59528543	4.08876793	7.49818801
1.25	0.21041663	12.89392484	-5.11455368	3.97445667	7.81383843
1.26	0.20974845	12.57456847	-4.65583259	3.86641101	8.15926182
1.27	0.20913626	12.24125359	-4.22752208	3.77145113	8.4597526
1.28	0.20862739	11.96254784	-3.85352856	3.69509986	8.78383092
1.29	0.20825715	11.71203472	-3.54308648	3.64205098	9.09057382
1.3	0.20804717	11.53045922	-3.31377353	3.61723887	9.41681917
1.31	0.20800409	11.3795513	-3.15944634	3.61931318	9.71848089
1.32	0.2081079	11.26755706	-3.07868948	3.64761278	10.00646581
1.33	0.20832385	11.18694459	-3.06068663	3.69800559	10.27638508
